<mxfile host="app.diagrams.net" agent="Mozilla/5.0 (Windows NT 10.0; Win64; x64) AppleWebKit/537.36 (KHTML, like Gecko) Chrome/135.0.0.0 Safari/537.36" version="26.2.14">
  <diagram name="Page-1" id="8SMq06fZD33_STgOfsnb">
    <mxGraphModel grid="1" page="1" gridSize="10" guides="1" tooltips="1" connect="1" arrows="1" fold="1" pageScale="1" pageWidth="827" pageHeight="1169" math="0" shadow="0">
      <root>
        <mxCell id="0" />
        <mxCell id="1" parent="0" />
        <mxCell id="aJBNAHP1amNdNiiORt2l-3" value="&lt;div style=&quot;line-height: 150%;&quot;&gt;&lt;b&gt;&lt;font style=&quot;font-size: 16px;&quot;&gt;Consulter le catalogue ,&amp;nbsp;&lt;span style=&quot;background-color: transparent; color: light-dark(rgb(0, 0, 0), rgb(255, 255, 255));&quot;&gt;&amp;nbsp;&lt;/span&gt;&lt;span style=&quot;background-color: transparent; color: light-dark(rgb(0, 0, 0), rgb(255, 255, 255));&quot;&gt;Rechercher un produit, ,&lt;/span&gt;&lt;/font&gt;&lt;/b&gt;&lt;div&gt;&lt;div&gt;&lt;b&gt;&lt;font style=&quot;font-size: 16px;&quot;&gt;&lt;span style=&quot;background-color: transparent; color: light-dark(rgb(0, 0, 0), rgb(255, 255, 255));&quot;&gt;gestion de panier(ajouter ,mettre à jour),&amp;nbsp;&amp;nbsp;&lt;/span&gt;&lt;span style=&quot;background-color: transparent; color: light-dark(rgb(0, 0, 0), rgb(255, 255, 255));&quot;&gt;S&#39;inscrire&lt;/span&gt;&lt;/font&gt;&lt;/b&gt;&lt;/div&gt;&lt;/div&gt;&lt;/div&gt;" style="text;html=1;align=left;verticalAlign=middle;resizable=0;points=[];autosize=1;strokeColor=none;fillColor=none;rotation=0;" vertex="1" parent="1">
          <mxGeometry x="148" y="913" width="410" height="50" as="geometry" />
        </mxCell>
        <mxCell id="ObSgi5TAC9NKfGRQqEIT-2" value="&lt;div style=&quot;line-height: 150%;&quot;&gt;&lt;font&gt;&lt;b style=&quot;&quot;&gt;&lt;font style=&quot;&quot;&gt;S&#39;authentifier ,&lt;span style=&quot;background-color: transparent; color: light-dark(rgb(0, 0, 0), rgb(255, 255, 255));&quot;&gt;Gérer le compte ,&lt;/span&gt;&lt;span style=&quot;background-color: transparent; color: light-dark(rgb(0, 0, 0), rgb(255, 255, 255));&quot;&gt;Gérer les produits&amp;nbsp; personnels&amp;nbsp;&lt;/span&gt;&lt;/font&gt;&lt;/b&gt;&lt;/font&gt;&lt;div&gt;&lt;div&gt;&lt;b&gt;&lt;font&gt;Passer une commande&lt;span style=&quot;background-color: transparent; color: light-dark(rgb(0, 0, 0), rgb(255, 255, 255));&quot;&gt;,&lt;/span&gt;&lt;span style=&quot;background-color: transparent; color: light-dark(rgb(0, 0, 0), rgb(255, 255, 255));&quot;&gt;Gérer les notifications ,&lt;/span&gt;&lt;/font&gt;&lt;/b&gt;&lt;b style=&quot;background-color: transparent; color: light-dark(rgb(0, 0, 0), rgb(255, 255, 255)); text-wrap-mode: nowrap;&quot;&gt;&lt;font&gt;Commenter un produit,&lt;/font&gt;&lt;/b&gt;&lt;/div&gt;&lt;div&gt;&lt;b style=&quot;text-wrap-mode: nowrap;&quot;&gt;&lt;font&gt;Signaler un produit,&lt;/font&gt;&lt;/b&gt;&lt;/div&gt;&lt;div&gt;&lt;div&gt;&lt;/div&gt;&lt;/div&gt;&lt;/div&gt;&lt;/div&gt;" style="text;strokeColor=none;align=left;fillColor=none;html=1;verticalAlign=middle;whiteSpace=wrap;rounded=0;fontSize=16;" vertex="1" parent="1">
          <mxGeometry x="749" y="687" width="593" height="170" as="geometry" />
        </mxCell>
        <mxCell id="ObSgi5TAC9NKfGRQqEIT-6" value="&lt;div style=&quot;line-height: 150%;&quot;&gt;&lt;br&gt;&lt;/div&gt;" style="text;html=1;align=left;verticalAlign=middle;resizable=0;points=[];autosize=1;strokeColor=none;fillColor=none;rotation=0;" vertex="1" parent="1">
          <mxGeometry x="84" y="1099" width="20" height="30" as="geometry" />
        </mxCell>
        <mxCell id="NjFcM_zTF8RCPOibRBWh-2" value="&lt;div style=&quot;line-height: 150%;&quot;&gt;&lt;div&gt;&lt;font style=&quot;line-height: 150%;&quot;&gt;&lt;b style=&quot;&quot;&gt;Valider l&#39;authentification ,&amp;nbsp;&lt;span style=&quot;background-color: transparent; color: light-dark(rgb(0, 0, 0), rgb(255, 255, 255));&quot;&gt;Afficher/ mettre à jour informations &lt;/span&gt;&lt;span style=&quot;background-color: transparent; color: light-dark(rgb(0, 0, 0), rgb(255, 255, 255));&quot;&gt;&amp;nbsp;&lt;/span&gt;&lt;/b&gt;&lt;/font&gt;&lt;/div&gt;&lt;div&gt;&lt;font style=&quot;background-color: transparent; color: light-dark(rgb(0, 0, 0), rgb(255, 255, 255)); line-height: 150%;&quot;&gt;&lt;b style=&quot;&quot;&gt;Confirmer la commande&amp;nbsp; ,&lt;span style=&quot;background-color: transparent; color: light-dark(rgb(0, 0, 0), rgb(255, 255, 255));&quot;&gt;Afficher /mettre à jour les notifications&amp;nbsp;&lt;/span&gt;&lt;/b&gt;&lt;/font&gt;&lt;/div&gt;&lt;div&gt;&lt;font&gt;&lt;font style=&quot;background-color: transparent; color: light-dark(rgb(0, 0, 0), rgb(255, 255, 255)); line-height: 150%;&quot;&gt;&lt;b style=&quot;text-wrap-mode: nowrap;&quot;&gt;&lt;span style=&quot;background-color: transparent; color: light-dark(rgb(0, 0, 0), rgb(255, 255, 255));&quot;&gt;Confirmer et ajout&amp;nbsp; commentaire &lt;/span&gt;&lt;/b&gt;&lt;/font&gt;&lt;b style=&quot;background-color: transparent; color: light-dark(rgb(0, 0, 0), rgb(255, 255, 255)); text-wrap-mode: nowrap;&quot;&gt;&lt;span style=&quot;background-color: transparent; color: light-dark(rgb(0, 0, 0), rgb(255, 255, 255));&quot;&gt;,&lt;/span&gt;&lt;span style=&quot;background-color: transparent; color: light-dark(rgb(0, 0, 0), rgb(255, 255, 255));&quot;&gt;Confirmer le signalement&amp;nbsp;&amp;nbsp;&lt;/span&gt;&lt;/b&gt;&lt;/font&gt;&lt;/div&gt;&lt;div&gt;&lt;div&gt;&lt;/div&gt;&lt;/div&gt;&lt;/div&gt;" style="text;strokeColor=none;align=left;fillColor=none;html=1;verticalAlign=middle;whiteSpace=wrap;rounded=0;fontSize=16;" vertex="1" parent="1">
          <mxGeometry x="100" y="740" width="506" height="60" as="geometry" />
        </mxCell>
        <mxCell id="NjFcM_zTF8RCPOibRBWh-3" value="&lt;div style=&quot;text-align: left;&quot;&gt;&lt;font&gt;&lt;b style=&quot;&quot;&gt;&lt;span style=&quot;background-color: transparent; color: light-dark(rgb(0, 0, 0), rgb(255, 255, 255));&quot;&gt;S&#39;authentifier ,&lt;/span&gt;&lt;span style=&quot;background-color: transparent; color: light-dark(rgb(0, 0, 0), rgb(255, 255, 255));&quot;&gt;Gérer les produits de site ,&lt;/span&gt;&lt;span style=&quot;background-color: transparent; color: light-dark(rgb(0, 0, 0), rgb(255, 255, 255));&quot;&gt;Gérer les produits&amp;nbsp; de client&amp;nbsp; &amp;nbsp;,&amp;nbsp;&lt;/span&gt;&lt;/b&gt;&lt;/font&gt;&lt;/div&gt;&lt;div style=&quot;text-align: left;&quot;&gt;&lt;b style=&quot;background-color: transparent; color: light-dark(rgb(0, 0, 0), rgb(255, 255, 255));&quot;&gt;&lt;font&gt;&lt;span style=&quot;background-color: transparent; color: light-dark(rgb(0, 0, 0), rgb(255, 255, 255));&quot;&gt;Gérer Les commandes une commande&amp;nbsp; &amp;nbsp;,&lt;/span&gt;&lt;span style=&quot;background-color: transparent; color: light-dark(rgb(0, 0, 0), rgb(255, 255, 255));&quot;&gt;Consulter tableau de bord&amp;nbsp; ,&lt;/span&gt;&lt;/font&gt;&lt;/b&gt;&lt;/div&gt;&lt;div style=&quot;text-align: left;&quot;&gt;&lt;b style=&quot;background-color: transparent; color: light-dark(rgb(0, 0, 0), rgb(255, 255, 255));&quot;&gt;&lt;font&gt;&lt;span style=&quot;background-color: transparent; color: light-dark(rgb(0, 0, 0), rgb(255, 255, 255));&quot;&gt;Gérer leur compte et comptes clients&amp;nbsp; ,&lt;/span&gt;&lt;span style=&quot;background-color: transparent; color: light-dark(rgb(0, 0, 0), rgb(255, 255, 255));&quot;&gt;Payer le vendeur ,&lt;/span&gt;&lt;span style=&quot;background-color: transparent; color: light-dark(rgb(0, 0, 0), rgb(255, 255, 255));&quot;&gt;Gérer le gain des ventes&amp;nbsp;&lt;/span&gt;&lt;/font&gt;&lt;/b&gt;&lt;/div&gt;&lt;div&gt;&lt;div style=&quot;text-align: left;&quot;&gt;&lt;span style=&quot;background-color: transparent; color: light-dark(rgb(0, 0, 0), rgb(255, 255, 255));&quot;&gt;&lt;b&gt;&lt;font&gt;&amp;nbsp;&lt;/font&gt;&lt;/b&gt;&lt;/span&gt;&lt;/div&gt;&lt;div&gt;&lt;br&gt;&lt;/div&gt;&lt;/div&gt;" style="text;strokeColor=none;align=center;fillColor=none;html=1;verticalAlign=middle;whiteSpace=wrap;rounded=0;fontSize=16;strokeWidth=0;" vertex="1" parent="1">
          <mxGeometry x="780" y="1113" width="635" height="70" as="geometry" />
        </mxCell>
        <mxCell id="a0NvnOAj9ImU6PlZ6FCt-1" value="&lt;div style=&quot;line-height: 150%;&quot;&gt;&lt;div&gt;&lt;font style=&quot;line-height: 150%;&quot;&gt;&lt;b style=&quot;&quot;&gt;Valider accès&amp;nbsp; l&#39;administrateur ,&lt;span style=&quot;background-color: transparent; color: light-dark(rgb(0, 0, 0), rgb(255, 255, 255));&quot;&gt;Mettre à jour le catalogue de site&amp;nbsp; ,&lt;/span&gt;&lt;span style=&quot;background-color: transparent; color: light-dark(rgb(0, 0, 0), rgb(255, 255, 255));&quot;&gt;Afficher etat /modérer produits&amp;nbsp;&lt;/span&gt;&lt;span style=&quot;background-color: transparent; color: light-dark(rgb(0, 0, 0), rgb(255, 255, 255));&quot;&gt;clients&amp;nbsp;&lt;/span&gt;&lt;/b&gt;&lt;/font&gt;&lt;/div&gt;&lt;div&gt;&lt;font style=&quot;line-height: 150%;&quot;&gt;&lt;b&gt;&lt;span style=&quot;background-color: transparent; color: light-dark(rgb(0, 0, 0), rgb(255, 255, 255));&quot;&gt;Afficher/mettre à jour statu de commandes ,&lt;/span&gt;&lt;span style=&quot;background-color: transparent; color: light-dark(rgb(0, 0, 0), rgb(255, 255, 255));&quot;&gt;Mette à jour etat de ce compte et comptes clients&lt;/span&gt;&lt;/b&gt;&lt;/font&gt;&lt;/div&gt;&lt;div&gt;&lt;b&gt;&lt;font&gt;&lt;span style=&quot;background-color: transparent; color: light-dark(rgb(0, 0, 0), rgb(255, 255, 255));&quot;&gt;&lt;font style=&quot;line-height: 150%;&quot;&gt;&amp;nbsp;&lt;/font&gt;&lt;/span&gt;&lt;span style=&quot;background-color: transparent; color: light-dark(rgb(0, 0, 0), rgb(255, 255, 255)); line-height: 150%;&quot;&gt;Afficher donnes analytique&amp;nbsp; ,&lt;/span&gt;&lt;span style=&quot;background-color: transparent; color: light-dark(rgb(0, 0, 0), rgb(255, 255, 255)); line-height: 150%;&quot;&gt;Confirmation de transaction&amp;nbsp; ,&lt;/span&gt;&lt;span style=&quot;background-color: transparent; color: light-dark(rgb(0, 0, 0), rgb(255, 255, 255)); line-height: 150%;&quot;&gt;Afficher el bilan financier&amp;nbsp;&lt;/span&gt;&lt;/font&gt;&lt;/b&gt;&lt;/div&gt;&lt;div&gt;&lt;font style=&quot;line-height: 150%;&quot;&gt;&lt;b style=&quot;&quot;&gt;&amp;nbsp;&lt;/b&gt;&lt;/font&gt;&lt;/div&gt;&lt;/div&gt;" style="text;strokeColor=none;align=left;fillColor=none;html=1;verticalAlign=middle;whiteSpace=wrap;rounded=0;fontSize=16;" vertex="1" parent="1">
          <mxGeometry x="787" y="897" width="940" height="88" as="geometry" />
        </mxCell>
        <mxCell id="5Or6mqJUKy4ApjLsZ553-11" value="&lt;font&gt;&lt;b style=&quot;&quot;&gt;Envoyer requête&amp;nbsp;&lt;/b&gt;&lt;/font&gt;" style="text;strokeColor=none;align=center;fillColor=none;html=1;verticalAlign=middle;whiteSpace=wrap;rounded=0;fontSize=16;" vertex="1" parent="1">
          <mxGeometry x="685" y="1169" width="210" height="30" as="geometry" />
        </mxCell>
        <mxCell id="IzVXWPUmLulkqkKXSA1B-11" value="" style="swimlane;startSize=0;" vertex="1" parent="1">
          <mxGeometry x="580" y="980" width="190" height="70" as="geometry" />
        </mxCell>
        <mxCell id="IzVXWPUmLulkqkKXSA1B-12" value="&lt;b&gt;&lt;font style=&quot;font-size: 14px;&quot;&gt;Application E-commerce&lt;/font&gt;&lt;/b&gt;" style="text;html=1;align=center;verticalAlign=middle;resizable=0;points=[];autosize=1;strokeColor=none;fillColor=none;" vertex="1" parent="IzVXWPUmLulkqkKXSA1B-11">
          <mxGeometry y="32" width="190" height="30" as="geometry" />
        </mxCell>
        <mxCell id="IzVXWPUmLulkqkKXSA1B-13" value="&lt;b&gt;&lt;font style=&quot;font-size: 14px;&quot;&gt;&amp;lt;&amp;lt;Systeme&amp;gt;&amp;gt;&lt;/font&gt;&lt;/b&gt;" style="text;html=1;align=center;verticalAlign=middle;resizable=0;points=[];autosize=1;strokeColor=none;fillColor=none;" vertex="1" parent="IzVXWPUmLulkqkKXSA1B-11">
          <mxGeometry x="41" y="8" width="110" height="30" as="geometry" />
        </mxCell>
        <mxCell id="emZAvz923B5ZuL0rR_K6-7" value="" style="endArrow=classic;html=1;rounded=0;" edge="1" parent="IzVXWPUmLulkqkKXSA1B-11">
          <mxGeometry width="50" height="50" relative="1" as="geometry">
            <mxPoint x="-220" y="32" as="sourcePoint" />
            <mxPoint y="31.579999999999927" as="targetPoint" />
          </mxGeometry>
        </mxCell>
        <mxCell id="IzVXWPUmLulkqkKXSA1B-19" value="" style="swimlane;startSize=0;" vertex="1" parent="1">
          <mxGeometry x="557" y="1220" width="200" height="70" as="geometry" />
        </mxCell>
        <mxCell id="IzVXWPUmLulkqkKXSA1B-26" value="" style="endArrow=classic;html=1;rounded=0;" edge="1" parent="1">
          <mxGeometry width="50" height="50" relative="1" as="geometry">
            <mxPoint x="640" y="980" as="sourcePoint" />
            <mxPoint x="640" y="810" as="targetPoint" />
          </mxGeometry>
        </mxCell>
        <mxCell id="IzVXWPUmLulkqkKXSA1B-27" value="" style="endArrow=classic;html=1;rounded=0;" edge="1" parent="1">
          <mxGeometry width="50" height="50" relative="1" as="geometry">
            <mxPoint x="578" y="1045" as="sourcePoint" />
            <mxPoint x="358" y="1045" as="targetPoint" />
          </mxGeometry>
        </mxCell>
        <mxCell id="IzVXWPUmLulkqkKXSA1B-30" value="" style="endArrow=classic;html=1;rounded=0;" edge="1" parent="1">
          <mxGeometry width="50" height="50" relative="1" as="geometry">
            <mxPoint x="770" y="1010" as="sourcePoint" />
            <mxPoint x="1010" y="1010" as="targetPoint" />
          </mxGeometry>
        </mxCell>
        <mxCell id="IzVXWPUmLulkqkKXSA1B-31" value="" style="endArrow=classic;html=1;rounded=0;entryX=0.984;entryY=1.12;entryDx=0;entryDy=0;entryPerimeter=0;" edge="1" parent="1" target="IzVXWPUmLulkqkKXSA1B-12">
          <mxGeometry width="50" height="50" relative="1" as="geometry">
            <mxPoint x="1010" y="1046" as="sourcePoint" />
            <mxPoint x="754" y="1052.5" as="targetPoint" />
          </mxGeometry>
        </mxCell>
        <mxCell id="IzVXWPUmLulkqkKXSA1B-32" value="&lt;b&gt;&lt;font style=&quot;font-size: 22px;&quot;&gt;Administrateur&lt;/font&gt;&lt;/b&gt;" style="shape=umlActor;verticalLabelPosition=bottom;verticalAlign=top;html=1;outlineConnect=0;" vertex="1" parent="1">
          <mxGeometry x="1090" y="980" width="30" height="60" as="geometry" />
        </mxCell>
        <mxCell id="IzVXWPUmLulkqkKXSA1B-33" value="" style="endArrow=classic;html=1;rounded=0;entryX=0.789;entryY=-0.021;entryDx=0;entryDy=0;entryPerimeter=0;" edge="1" parent="1">
          <mxGeometry width="50" height="50" relative="1" as="geometry">
            <mxPoint x="698" y="810" as="sourcePoint" />
            <mxPoint x="697.8" y="978.1099999999999" as="targetPoint" />
          </mxGeometry>
        </mxCell>
        <mxCell id="IzVXWPUmLulkqkKXSA1B-20" value="&lt;b&gt;&lt;font style=&quot;font-size: 14px;&quot;&gt;Systeme de paiment&lt;/font&gt;&lt;/b&gt;" style="text;html=1;align=center;verticalAlign=middle;resizable=0;points=[];autosize=1;strokeColor=none;fillColor=none;" vertex="1" parent="1">
          <mxGeometry x="581" y="1242" width="160" height="30" as="geometry" />
        </mxCell>
        <mxCell id="emZAvz923B5ZuL0rR_K6-2" value="&lt;b&gt;&lt;font style=&quot;font-size: 22px;&quot;&gt;visiteur&lt;/font&gt;&lt;/b&gt;" style="shape=umlActor;verticalLabelPosition=bottom;verticalAlign=top;html=1;outlineConnect=0;" vertex="1" parent="1">
          <mxGeometry x="269" y="990" width="30" height="60" as="geometry" />
        </mxCell>
        <mxCell id="emZAvz923B5ZuL0rR_K6-3" value="&lt;b&gt;&lt;font style=&quot;font-size: 22px;&quot;&gt;client&lt;/font&gt;&lt;/b&gt;" style="shape=umlActor;verticalLabelPosition=bottom;verticalAlign=top;html=1;outlineConnect=0;" vertex="1" parent="1">
          <mxGeometry x="655" y="701" width="30" height="60" as="geometry" />
        </mxCell>
        <mxCell id="emZAvz923B5ZuL0rR_K6-5" value="&lt;font style=&quot;font-size: 15px;&quot;&gt;&lt;b style=&quot;&quot;&gt;confirmer le paiment&amp;nbsp;&lt;/b&gt;&lt;/font&gt;" style="text;strokeColor=none;align=center;fillColor=none;html=1;verticalAlign=middle;whiteSpace=wrap;rounded=0;fontSize=16;" vertex="1" parent="1">
          <mxGeometry x="440" y="1169" width="210" height="30" as="geometry" />
        </mxCell>
        <mxCell id="E-mAmM0Xn2aNwy84Zs0m-1" value="" style="endArrow=classic;html=1;rounded=0;entryX=0.789;entryY=-0.021;entryDx=0;entryDy=0;entryPerimeter=0;" edge="1" parent="1">
          <mxGeometry width="50" height="50" relative="1" as="geometry">
            <mxPoint x="698" y="1049" as="sourcePoint" />
            <mxPoint x="697.8" y="1217.11" as="targetPoint" />
          </mxGeometry>
        </mxCell>
        <mxCell id="E-mAmM0Xn2aNwy84Zs0m-2" value="" style="endArrow=classic;html=1;rounded=0;" edge="1" parent="1">
          <mxGeometry width="50" height="50" relative="1" as="geometry">
            <mxPoint x="640" y="1219" as="sourcePoint" />
            <mxPoint x="640" y="1049" as="targetPoint" />
          </mxGeometry>
        </mxCell>
        <mxCell id="E-mAmM0Xn2aNwy84Zs0m-10" value="&lt;div style=&quot;line-height: 150%;&quot;&gt;&lt;div&gt;&lt;b&gt;&lt;font style=&quot;font-size: 15px;&quot;&gt;&lt;span style=&quot;background-color: transparent; color: light-dark(rgb(0, 0, 0), rgb(255, 255, 255));&quot;&gt;Afficher interface des produits&amp;nbsp; ,&lt;/span&gt;&lt;span style=&quot;background-color: transparent; color: light-dark(rgb(0, 0, 0), rgb(255, 255, 255));&quot;&gt;Afficher le résultat de recherche&amp;nbsp; ,&lt;/span&gt;&lt;/font&gt;&lt;/b&gt;&lt;/div&gt;&lt;div&gt;&lt;font style=&quot;font-size: 15px;&quot;&gt;&lt;b style=&quot;&quot;&gt;&amp;nbsp;&lt;/b&gt;&lt;b style=&quot;background-color: transparent; color: light-dark(rgb(0, 0, 0), rgb(255, 255, 255));&quot;&gt;&lt;span style=&quot;background-color: transparent; color: light-dark(rgb(0, 0, 0), rgb(255, 255, 255));&quot;&gt;Mettre à jour le panier ,&lt;/span&gt;&lt;span style=&quot;background-color: transparent; color: light-dark(rgb(0, 0, 0), rgb(255, 255, 255));&quot;&gt;Crier le compte /Confirmer inscription&amp;nbsp;&lt;/span&gt;&lt;/b&gt;&lt;/font&gt;&lt;/div&gt;&lt;/div&gt;" style="text;html=1;align=left;verticalAlign=middle;resizable=0;points=[];autosize=1;strokeColor=none;fillColor=none;rotation=0;" vertex="1" parent="1">
          <mxGeometry x="94" y="1093" width="500" height="50" as="geometry" />
        </mxCell>
      </root>
    </mxGraphModel>
  </diagram>
</mxfile>
